<svg width="1080" height="1080" viewBox="0 0 1080 1080" fill="none" xmlns="http://www.w3.org/2000/svg">
<path d="M712.503 756C722.143 756 730 748.207 730 738.566C730 728.925 722.179 721.132 712.503 721.132H629.203C623.128 705.873 608.177 695 590.717 695H490.283C472.823 695 457.872 705.837 451.797 721.132H368.497C358.857 721.132 351 728.925 351 738.566C351 748.207 358.821 756 368.497 756H712.54H712.503Z" fill="url(#paint0_linear_1_15)"></path>
<path d="M787.777 813.058C775.41 802.048 759.479 796 742.894 796H338.106C321.521 796 305.59 802.048 293.223 813.058L213.895 883.537C203.747 892.555 200.328 906.535 205.166 919.175C210.003 931.815 221.897 940 235.5 940H845.5C859.103 940 870.997 931.815 875.834 919.175C880.672 906.535 877.253 892.555 867.105 883.537L787.777 813.095V813.058ZM242.047 905.159L316.465 839.026C322.43 833.738 330.105 830.805 338.07 830.805H742.857C750.823 830.805 758.534 833.702 764.462 839.026L838.88 905.159H242.047Z" fill="url(#paint1_linear_1_15)"></path>
<path d="M849.085 249.817C846.642 242.763 840.006 238 832.496 238H624.537C614.875 238 607 245.817 607 255.489C607 265.161 614.839 272.979 624.537 272.979H781.272L614.693 401.73C607.036 407.657 605.651 418.638 611.557 426.237C615.021 430.673 620.198 433 625.412 433C629.167 433 632.922 431.8 636.13 429.328L843.215 269.306C849.121 264.725 851.491 256.907 849.048 249.817H849.085Z" fill="url(#paint2_linear_1_15)"></path>
<path d="M832.452 398H743.548C733.88 398 726 405.822 726 415.5C726 425.178 733.844 433 743.548 433H832.452C842.12 433 850 425.178 850 415.5C850 405.822 842.157 398 832.452 398Z" fill="url(#paint3_linear_1_15)"></path>
<path d="M897.038 141H183.962C156.379 141 134 163.388 134 190.981V618.019C134 645.612 156.379 668 183.962 668H897.038C924.621 668 947 645.612 947 618.019V190.981C947 163.388 924.621 141 897.038 141ZM912.03 618.019C912.03 626.283 905.298 633.017 897.038 633.017H183.962C175.702 633.017 168.97 626.283 168.97 618.019V190.981C168.97 182.717 175.702 175.983 183.962 175.983H897.038C905.298 175.983 912.03 182.717 912.03 190.981V618.019Z" fill="url(#paint4_linear_1_15)"></path>
<defs>
<linearGradient id="paint0_linear_1_15" x1="635.423" y1="637.733" x2="455.22" y2="830.552" gradientUnits="userSpaceOnUse">
<stop stop-color="#F68C2D"></stop>
<stop offset="1" stop-color="#F17685"></stop>
</linearGradient>
<linearGradient id="paint1_linear_1_15" x1="709.868" y1="727.875" x2="388.602" y2="1071.9" gradientUnits="userSpaceOnUse">
<stop stop-color="#F68C2D"></stop>
<stop offset="1" stop-color="#F17685"></stop>
</linearGradient>
<linearGradient id="paint2_linear_1_15" x1="791.845" y1="188.15" x2="595.861" y2="397.713" gradientUnits="userSpaceOnUse">
<stop stop-color="#F68C2D"></stop>
<stop offset="1" stop-color="#F17685"></stop>
</linearGradient>
<linearGradient id="paint3_linear_1_15" x1="821.69" y1="379.663" x2="757.705" y2="448.054" gradientUnits="userSpaceOnUse">
<stop stop-color="#F68C2D"></stop>
<stop offset="1" stop-color="#F17685"></stop>
</linearGradient>
<linearGradient id="paint4_linear_1_15" x1="856.283" y1="67.6852" x2="254.352" y2="709.273" gradientUnits="userSpaceOnUse">
<stop stop-color="#F68C2D"></stop>
<stop offset="1" stop-color="#F17685"></stop>
</linearGradient>
</defs>
</svg>
